<?xml version="1.0" encoding="utf-8"?>
<!-- Generator: Adobe Illustrator 13.0.0, SVG Export Plug-In . SVG Version: 6.00 Build 14948)  -->
<!DOCTYPE svg PUBLIC "-//W3C//DTD SVG 1.1//EN" "http://www.w3.org/Graphics/SVG/1.1/DTD/svg11.dtd">
<svg version="1.1" id="Layer_1" xmlns="http://www.w3.org/2000/svg" xmlns:xlink="http://www.w3.org/1999/xlink" x="0px" y="0px"
	 width="1200px" height="300px" viewBox="0 0 1200 300" enable-background="new 0 0 1200 300" xml:space="preserve">
  <style>
      path {
  stroke-dasharray: 1300;
  stroke-dashoffset: -1300;
  -webkit-animation: strokeAnim 15s ease infinite;
  animation: strokeAnim 13s ease infinite; 
         animation-direction: reverse;
           
    }

path:first-child {
  display: none; }

@-webkit-keyframes strokeAnim {
  0% {
    stroke-dashoffset: -1300;
    opacity: 1; }
  50% {
    stroke-dashoffset: 0;
    opacity: 1; }
  99% {
    stroke-dashoffset: 1300; }
  99.1% {
    stroke-dashoffset: 1300;
    opacity: 0; }
  100% {
    stroke-dashoffset: -1300;
    opacity: 0; } }
@keyframes strokeAnim {
  0% {
    stroke-dashoffset: -1300;
    opacity: 1; }
  50% {
    stroke-dashoffset: 0;
    opacity: 1; }
  99% {
    stroke-dashoffset: 1300; }
  99.1% {
    stroke-dashoffset: 1300;
    opacity: 0; }
  100% {
    stroke-dashoffset: -1300;
    opacity: 0; } }        
         
path:nth-child(1) {
  -webkit-animation-delayy: 5.55s;
  animation-delay: 5.55s; }

path:nth-child(2) {
  -webkit-animation-delayy: 5.7s;
  animation-delay: 5.7s; }

path:nth-child(3) {
  -webkit-animation-delayy: 5.85s;
  animation-delay: 5.85s; }

path:nth-child(4) {
  -webkit-animation-delayy: 6s;
  animation-delay: 6s; }

path:nth-child(5) {
  -webkit-animation-delayy: 6.15s;
  animation-delay: 6.15s; }

path:nth-child(6) {
  -webkit-animation-delayy: 6.3s;
  animation-delay: 6.3s; }

path:nth-child(7) {
  -webkit-animation-delayy: 6.45s;
  animation-delay: 6.45s; }

path:nth-child(8) {
  -webkit-animation-delayy: 6.6s;
  animation-delay: 6.6s; }

path:nth-child(9) {
  -webkit-animation-delayy: 6.75s;
  animation-delay: 6.75s; }

path:nth-child(10) {
  -webkit-animation-delayy: 6.9s;
  animation-delay: 6.9s; }

path:nth-child(11) {
  -webkit-animation-delayy: 7.05s;
  animation-delay: 7.05s; }

path:nth-child(12) {
  -webkit-animation-delayy: 7.2s;
  animation-delay: 7.2s; }

path:nth-child(13) {
  -webkit-animation-delayy: 7.35s;
  animation-delay: 7.35s; }

path:nth-child(14) {
  -webkit-animation-delayy: 7.5s;
  animation-delay: 7.5s; }
    </style>

<path fill="none" stroke="#B29EC7" stroke-width="2" stroke-miterlimit="10" stroke-dasharray="1300" stroke-dashoffset="-1300" d="
	M1685.4-861.8"/>
<path fill="none" stroke="#B29EC7" stroke-width="2" stroke-miterlimit="10" stroke-dasharray="1300" stroke-dashoffset="-1300" d="
	M251.3,357.7c72.4,95.1,224.2-30.3,336.5,53.8C944.4,678.8,1294.3-15.2,1223.4-247.4"/>
<path fill="none" stroke="#B29EC7" stroke-width="2" stroke-miterlimit="10" stroke-dasharray="1300" stroke-dashoffset="-1300" d="
	M250.3,372.7c72.4,95.1,224.2-30.3,336.5,53.8C943.4,693.8,1293.3-0.2,1222.4-232.4"/>
<path fill="none" stroke="#B29EC7" stroke-width="2" stroke-miterlimit="10" stroke-dasharray="1300" stroke-dashoffset="-1300" d="
	M247.3,391.7c72.4,95.1,224.2-30.3,336.5,53.8C940.4,712.8,1290.3,18.8,1219.4-213.4"/>
<path fill="none" stroke="#B29EC7" stroke-width="2" stroke-miterlimit="10" stroke-dasharray="1300" stroke-dashoffset="-1300" d="
	M245.3,414.7c72.4,95.1,224.2-30.3,336.5,53.8C938.4,735.8,1288.3,41.8,1217.4-190.4"/>
<path fill="none" stroke="#B29EC7" stroke-width="2" stroke-miterlimit="10" stroke-dasharray="1300" stroke-dashoffset="-1300" d="
	M243.3,436.7c72.4,95.1,224.2-30.3,336.5,53.8C936.4,757.8,1286.3,63.8,1215.4-168.4"/>
<path fill="none" stroke="#B29EC7" stroke-width="2" stroke-miterlimit="10" stroke-dasharray="1300" stroke-dashoffset="-1300" d="
	M242.3,451.7c72.4,95.1,224.2-30.3,336.5,53.8C935.4,772.8,1285.3,78.8,1214.4-153.4"/>
<path fill="none" stroke="#B29EC7" stroke-width="2" stroke-miterlimit="10" stroke-dasharray="1300" stroke-dashoffset="-1300" d="
	M239.3,470.7c72.4,95.1,224.2-30.3,336.5,53.8C932.4,791.8,1282.3,97.8,1211.4-134.4"/>
<path fill="none" stroke="#B29EC7" stroke-width="2" stroke-miterlimit="10" stroke-dasharray="1300" stroke-dashoffset="-1300" d="
	M237.3,493.7c72.4,95.1,224.2-30.3,336.5,53.8C930.4,814.8,1280.3,120.8,1209.4-111.4"/>
<path fill="none" stroke="#B29EC7" stroke-width="2" stroke-miterlimit="10" stroke-dasharray="1300" stroke-dashoffset="-1300" d="
	M237.3,511.7c72.4,95.1,224.2-30.3,336.5,53.8C930.4,832.8,1280.3,138.8,1209.4-93.4"/>
<path fill="none" stroke="#B29EC7" stroke-width="2" stroke-miterlimit="10" stroke-dasharray="1300" stroke-dashoffset="-1300" d="
	M236.3,526.7c72.4,95.1,224.2-30.3,336.5,53.8C929.4,847.8,1279.3,153.8,1208.4-78.4"/>
<path fill="none" stroke="#B29EC7" stroke-width="2" stroke-miterlimit="10" stroke-dasharray="1300" stroke-dashoffset="-1300" d="
	M233.3,545.7c72.4,95.1,224.2-30.3,336.5,53.8C926.4,866.8,1276.3,172.8,1205.4-59.4"/>
<path fill="none" stroke="#B29EC7" stroke-width="2" stroke-miterlimit="10" stroke-dasharray="1300" stroke-dashoffset="-1300" d="
	M231.3,568.7c72.4,95.1,224.2-30.3,336.5,53.8C924.4,889.8,1274.3,195.8,1203.4-36.4"/>
      <style>
      path {
  stroke-dasharray: 1300;
  stroke-dashoffset: -1300;
  -webkit-animation: strokeAnim 10s ease infinite;
  animation: strokeAnim 12s ease infinite; 
         animation-direction: reverse;
           
    }

path:first-child {
  display: none; }

@-webkit-keyframes strokeAnim {
  0% {
    stroke-dashoffset: -1300;
    opacity: 1; }
  50% {
    stroke-dashoffset: 0;
    opacity: 1; }
  99% {
    stroke-dashoffset: 1300; }
  99.1% {
    stroke-dashoffset: 1300;
    opacity: 0; }
  100% {
    stroke-dashoffset: -1300;
    opacity: 0; } }
@keyframes strokeAnim {
  0% {
    stroke-dashoffset: -1300;
    opacity: 1; }
  50% {
    stroke-dashoffset: 0;
    opacity: 1; }
  99% {
    stroke-dashoffset: 1300; }
  99.1% {
    stroke-dashoffset: 1300;
    opacity: 0; }
  100% {
    stroke-dashoffset: -1300;
    opacity: 0; } }
        
        path:nth-child(15) {
  -webkit-animation-delay: 0.0s;
  animation-delay: 0.0s; }

path:nth-child(16) {
  -webkit-animation-delayy: 0.3s;
  animation-delay: 0.3s; }

path:nth-child(17) {
  -webkit-animation-delayy: 0.45s;
  animation-delay: 0.45s; }

path:nth-child(18) {
  -webkit-animation-delayy: 0.6s;
  animation-delay: 0.6s; }

path:nth-child(19) {
  -webkit-animation-delayy: 0.75s;
  animation-delay: 0.75s; }

path:nth-child(20) {
  -webkit-animation-delayy: 0.9s;
  animation-delay: 0.9s; }

path:nth-child(21) {
  -webkit-animation-delayy: 1.05s;
  animation-delay: 1.05s; }

path:nth-child(22) {
  -webkit-animation-delayy: 1.2s;
  animation-delay: 1.2s; }

path:nth-child(23) {
  -webkit-animation-delayy: 1.35s;
  animation-delay: 1.35s; }

path:nth-child(24) {
  -webkit-animation-delayy: 1.5s;
  animation-delay: 1.5s; }

path:nth-child(25) {
  -webkit-animation-delayy: 1.65s;
  animation-delay: 1.65s; }

path:nth-child(26) {
  -webkit-animation-delayy: 1.8s;
  animation-delay: 1.8s; }

path:nth-child(27) {
  -webkit-animation-delayy: 1.95s;
  animation-delay: 1.95s; }

path:nth-child(28) {
  -webkit-animation-delayy: 2.1s;
  animation-delay: 2.1s; }

path:nth-child(29) {
  -webkit-animation-delayy: 2.25s;
  animation-delay: 2.25s; }

path:nth-child(30) {
  -webkit-animation-delayy: 2.4s;
  animation-delay: 2.4s; }

</style>
<path fill="none" stroke="#B29EC7" stroke-width="2" stroke-miterlimit="10" stroke-dasharray="1300" stroke-dashoffset="-1300" d="
	M-1.1,17.2c23,162,154,121,266.5,230.5c315.5,393.399,970.2,268.7,978,232"/>
<path fill="none" stroke="#B29EC7" stroke-width="2" stroke-miterlimit="10" stroke-dasharray="1300" stroke-dashoffset="-1300" d="
	M-1,23.6c23,162,153.5,122.6,266,232.1c315.5,393.399,970.2,268.7,978,232"/>
<path fill="none" stroke="#B29EC7" stroke-width="2" stroke-miterlimit="10" stroke-dasharray="1300" stroke-dashoffset="-1300" d="
	M-0.6,29.6c23,162,152.5,123.4,265,232.9c315.5,393.4,970.2,268.7,978,232"/>
<path fill="none" stroke="#B29EC7" stroke-width="2" stroke-miterlimit="10" stroke-dasharray="1300" stroke-dashoffset="-1300" d="
	M-0.1,36.6c23,162,153,126,265.5,235.5c315.5,393.4,970.2,268.7,978,232"/>
<path fill="none" stroke="#B29EC7" stroke-width="2" stroke-miterlimit="10" stroke-dasharray="1300" stroke-dashoffset="-1300" d="
	M-0.1,42.6c23,162,153.5,128.4,266,237.9c315.5,393.4,970.2,268.7,978,232"/>
<path fill="none" stroke="#B29EC7" stroke-width="2" stroke-miterlimit="10" stroke-dasharray="1300" stroke-dashoffset="-1300" d="
	M-0.1,48.6c23,162,153.1,130.4,265.6,239.9c315.5,393.4,970.2,268.7,978,232"/>
<path fill="none" stroke="#B29EC7" stroke-width="2" stroke-miterlimit="10" stroke-dasharray="1300" stroke-dashoffset="-1300" d="
	M-0.1,53.4c23,162,152.5,132.4,265,241.9c315.5,393.4,970.2,268.7,978,232"/>
<path fill="none" stroke="#B29EC7" stroke-width="2" stroke-miterlimit="10" stroke-dasharray="1300" stroke-dashoffset="-1300" d="
	M-0.1,57.8c23,162,153.5,136.7,266,246.2c315.5,393.4,970.2,268.7,978,232"/>
<path fill="none" stroke="#B29EC7" stroke-width="2" stroke-miterlimit="10" stroke-dasharray="1300" stroke-dashoffset="-1300" d="
	M-0.1,64.9c23.9,161.6,154.5,136.6,267,246.1c315.5,393.4,970.2,268.7,978,232"/>
<path fill="none" stroke="#B29EC7" stroke-width="2" stroke-miterlimit="10" stroke-dasharray="1300" stroke-dashoffset="-1300" d="
	M-0.1,67.9c23,162,151.7,139.8,266,247.5c315.5,393.399,970.2,268.699,978,232"/>
</svg>
