<?xml version="1.0" encoding="utf-8"?>
<!-- Generator: Adobe Illustrator 13.0.0, SVG Export Plug-In . SVG Version: 6.00 Build 14948)  -->
<!DOCTYPE svg PUBLIC "-//W3C//DTD SVG 1.1//EN" "http://www.w3.org/Graphics/SVG/1.1/DTD/svg11.dtd">
<svg version="1.1" id="Layer_1" xmlns="http://www.w3.org/2000/svg" xmlns:xlink="http://www.w3.org/1999/xlink" x="0px" y="0px"
	 width="1200px" height="300px" viewBox="0 0 1200 300" enable-background="new 0 0 1200 300" xml:space="preserve">
<style>
      path {
  stroke-dasharray: 1300;
  stroke-dashoffset: -1300;
  -webkit-animation: strokeAnim 13s ease infinite;
  animation: strokeAnim 15s ease infinite;
        animation-direction: reverse;}

path:first-child {
  display: none; }

@-webkit-keyframes strokeAnim {
  0% {
    stroke-dashoffset: -1300;
    opacity: 1; }
  50% {
    stroke-dashoffset: 0;
    opacity: 1; }
  99% {
    stroke-dashoffset: 1300; }
  99.1% {
    stroke-dashoffset: 1300;
    opacity: 0; }
  100% {
    stroke-dashoffset: -1300;
    opacity: 0; } }
@keyframes strokeAnim {
  0% {
    stroke-dashoffset: -1300;
    opacity: 0; }
  50% {
    stroke-dashoffset: 0;
    opacity: 1; }
  99% {
    stroke-dashoffset: 1300; }
  99.1% {
    stroke-dashoffset: 1300;
    opacity: 0; }
  100% {
    stroke-dashoffset: -1300;
    opacity: 0; } }

path:nth-child(8) {
  -webkit-animation-delayy: -1.0s;
  animation-delay: -1.0s; }

path:nth-child(9) {
  -webkit-animation-delayy: -0.8s;
  animation-delay: -0.8s; }

path:nth-child(10) {
  -webkit-animation-delayy: -0.75s;
  animation-delay: -0.75s; }

path:nth-child(11) {
  -webkit-animation-delayy: -0.65s;
  animation-delay: -0.65s; }

path:nth-child(12) {
  -webkit-animation-delayy: -0.50s;
  animation-delay: -0.50s; }

path:nth-child(13) {
  -webkit-animation-delayy: -0.2s;
  animation-delay: -0.2s; 

path:nth-child(14) {
  -webkit-animation-delayy: -0.3s;
  animation-delay: -0.3s; }

path:nth-child(15) {
  -webkit-animation-delayy: -0.15s;
  animation-delay: -0.15s; }
    </style>
  
<path fill="none" stroke="#A5DBDB" stroke-width="2" stroke-miterlimit="10" stroke-dasharray="1300" stroke-dashoffset="-1300" d="
	M-23.05,171.7c18.3,78.5,222.1,117,386.6,141.3c172.4,25.5,393.7,66.4,630,18.4c372.601-75.7,848.101-385.3,791.9-345"/>
<path fill="none" stroke="#A5DBDB" stroke-width="2" stroke-miterlimit="10" stroke-dasharray="1300" stroke-dashoffset="-1300" d="
	M-26.95,180.3c18.3,78.5,222.1,117,386.601,141.3c172.399,25.5,393.699,66.4,630,18.4c372.6-75.7,848.1-385.3,791.899-345"/>
<path fill="none" stroke="#A5DBDB" stroke-width="2" stroke-miterlimit="10" stroke-dasharray="1300" stroke-dashoffset="-1300" d="
	M-28.15,190.5c18.3,78.5,222.1,117,386.6,141.3c172.399,25.5,393.7,66.4,630,18.4c372.6-75.7,848.1-385.3,791.899-345"/>
<path fill="none" stroke="#A5DBDB" stroke-width="2" stroke-miterlimit="10" stroke-dasharray="1300" stroke-dashoffset="-1300" d="
	M-32.65,198.1c18.3,78.5,222.1,117,386.6,141.301c172.399,25.5,393.7,66.399,630,18.399c372.6-75.7,848.1-385.3,791.899-345"/>
<path fill="none" stroke="#A5DBDB" stroke-width="2" stroke-miterlimit="10" stroke-dasharray="1300" stroke-dashoffset="-1300" d="
	M-34.55,209.5c18.3,78.5,222.1,117,386.6,141.3c172.4,25.5,393.7,66.4,630,18.4c372.601-75.7,848.101-385.3,791.9-345"/>
<path fill="none" stroke="#A5DBDB" stroke-width="2" stroke-miterlimit="10" stroke-dasharray="1300" stroke-dashoffset="-1300" d="
	M-36.75,219.7c18.3,78.5,222.1,117,386.6,141.3c172.4,25.5,393.7,66.4,630,18.4c372.601-75.7,848.101-385.3,791.9-345"/>
    <style>
      path {
  stroke-dasharray: 1300;
  stroke-dashoffset: -1300;
  -webkit-animation: strokeAnim 13s ease infinite;
  animation: strokeAnim 11s ease infinite;
        animation-direction: reverse;}

path:first-child {
  display: none; }

@-webkit-keyframes strokeAnim {
  0% {
    stroke-dashoffset: -1300;
    opacity: 1; }
  50% {
    stroke-dashoffset: 0;
    opacity: 1; }
  99% {
    stroke-dashoffset: 1300; }
  99.1% {
    stroke-dashoffset: 1300;
    opacity: 0; }
  100% {
    stroke-dashoffset: -1300;
    opacity: 0; } }
        
path:nth-child(1) {
  -webkit-animation-delay: 0.2s;
  animation-delay: 0.2s; }

path:nth-child(2) {
  -webkit-animation-delayy: 0.3s;
  animation-delay: 0.3s; }

path:nth-child(3) {
  -webkit-animation-delayy: 0.45s;
  animation-delay: 0.45s; }

path:nth-child(4) {
  -webkit-animation-delayy: 0.6s;
  animation-delay: 0.6s; }

path:nth-child(5) {
  -webkit-animation-delayy: 0.75s;
  animation-delay: 0.75s; }

path:nth-child(6) {
  -webkit-animation-delayy: 0.9s;
  animation-delay: 0.9s; }

path:nth-child(7) {
  -webkit-animation-delayy: 1.05s;
  animation-delay: 1.05s; }
    </style>
<path fill="none" stroke="#A5DBDB" stroke-width="2" stroke-miterlimit="10" stroke-dasharray="1300" stroke-dashoffset="-1300" d="
	M-0.75,30.8c-8,117.2,148.2,201.5,284.3,225c161.4,30.2,483.5,75.5,708.5,26.5C1425.05,188.1,1788.65-60,1788.65-60"/>
<path fill="none" stroke="#A5DBDB" stroke-width="2" stroke-miterlimit="10" stroke-dasharray="1300" stroke-dashoffset="-1300" d="
	M1.95,49.8c-24.5,88.9,124,185.4,275.6,215.2c177.4,33.2,472.8,77.8,708.5,26.5c433-94.2,796.601-342.3,796.601-342.3"/>
<path fill="none" stroke="#A5DBDB" stroke-width="2" stroke-miterlimit="10" stroke-dasharray="1300" stroke-dashoffset="-1300" d="
	M-1.05,58c-24.5,89,124,185.4,275.6,215.2c177.4,33.2,472.8,77.8,708.5,26.5c433-94.2,796.601-342.3,796.601-342.3"/>
<path fill="none" stroke="#A5DBDB" stroke-width="2" stroke-miterlimit="10" stroke-dasharray="1300" stroke-dashoffset="-1300" d="
	M-3.05,67.7c-24.5,88.899,124,185.399,275.6,215.2c177.4,33.199,472.8,77.8,708.5,26.5c433-94.2,796.601-342.3,796.601-342.3"/>
<path fill="none" stroke="#A5DBDB" stroke-width="2" stroke-miterlimit="10" stroke-dasharray="1300" stroke-dashoffset="-1300" d="
	M-6.05,76.9c-24.5,88.9,124,185.4,275.6,215.2c177.4,33.2,472.8,77.801,708.5,26.5c433-94.199,796.601-342.3,796.601-342.3"/>
<path fill="none" stroke="#A5DBDB" stroke-width="2" stroke-miterlimit="10" stroke-dasharray="1300" stroke-dashoffset="-1300" d="
	M-10.05,86.1c-24.5,88.9,124,185.4,275.6,215.2c177.4,33.2,472.8,77.8,708.5,26.5c433-94.2,796.601-342.3,796.601-342.3"/>
</svg>
