<?xml version="1.0" encoding="utf-8"?>
<!-- Generator: Adobe Illustrator 13.0.0, SVG Export Plug-In . SVG Version: 6.00 Build 14948)  -->
<!DOCTYPE svg PUBLIC "-//W3C//DTD SVG 1.1//EN" "http://www.w3.org/Graphics/SVG/1.1/DTD/svg11.dtd">
<svg version="1.1" id="Layer_1" xmlns="http://www.w3.org/2000/svg" xmlns:xlink="http://www.w3.org/1999/xlink" x="0px" y="0px"
	 width="1200px" height="300px" viewBox="0 0 1200 300" enable-background="new 0 0 1200 300" xml:space="preserve">
    
    <style>
      path {
  stroke-dasharray: 1300;
  stroke-dashoffset: -1300;
  -webkit-animation: strokeAnim 15s ease infinite;
  animation: strokeAnim 13s ease infinite;
        animation-direction: reverse;}

path:first-child {
  animation-direction: reverse;
  display: none; }

@-webkit-keyframes strokeAnim {
  0% {
    stroke-dashoffset: -1300;
    opacity: 1; }
  50% {
    stroke-dashoffset: 0;
    opacity: 1; }
  99% {
    stroke-dashoffset: 1300; }
  99.1% {
    stroke-dashoffset: 1300;
    opacity: 0; }
  100% {
    stroke-dashoffset: -1300;
    opacity: 0; } }
@keyframes strokeAnim {
  0% {
    stroke-dashoffset: -1300;
    opacity: 0; }
  50% {
    stroke-dashoffset: 0;
    opacity: 1; }
  99% {
    stroke-dashoffset: 1300; }
  99.1% {
    stroke-dashoffset: 1300;
    opacity: 0; }
  100% {
    stroke-dashoffset: -1300;
    opacity: 0; } }
path:nth-child(1) {
  -webkit-animation-delay: -3.2s;
  animation-delay: -3.2s; }

path:nth-child(2) {
  -webkit-animation-delayy: 0.3s;
  animation-delay: 0.3s; }

path:nth-child(3) {
  -webkit-animation-delayy: 0.45s;
  animation-delay: 0.45s; }

path:nth-child(4) {
  -webkit-animation-delayy: 0.6s;
  animation-delay: 0.6s; }

path:nth-child(5) {
  -webkit-animation-delayy: 0.75s;
  animation-delay: 0.75s; }

path:nth-child(6) {
  -webkit-animation-delayy: 0.9s;
  animation-delay: 0.9s; }

path:nth-child(7) {
  -webkit-animation-delayy: 1.05s;
  animation-delay: 1.05s; }

path:nth-child(8) {
  -webkit-animation-delayy: 1.2s;
  animation-delay: 1.2s; }

path:nth-child(9) {
  -webkit-animation-delayy: 1.35s;
  animation-delay: 1.35s; }

path:nth-child(10) {
  -webkit-animation-delayy: 1.5s;
  animation-delay: 1.5s; }

path:nth-child(11) {
  -webkit-animation-delayy: 1.65s;
  animation-delay: 1.65s; }

path:nth-child(12) {
  -webkit-animation-delayy: 1.8s;
  animation-delay: 1.8s; }

path:nth-child(13) {
  -webkit-animation-delayy: 1.95s;
  animation-delay: 1.95s; }

path:nth-child(14) {
  -webkit-animation-delayy: 2.1s;
  animation-delay: 2.1s; }

path:nth-child(15) {
  -webkit-animation-delayy: 2.25s;
  animation-delay: 2.25s; }

path:nth-child(16) {
  -webkit-animation-delayy: 2.4s;
  animation-delay: 2.4s; }

path:nth-child(17) {
  -webkit-animation-delayy: 2.55s;
  animation-delay: 2.55s; }

path:nth-child(18) {
  -webkit-animation-delayy: 2.7s;
  animation-delay: 2.7s; }

path:nth-child(19) {
  -webkit-animation-delayy: 2.85s;
  animation-delay: 2.85s; }

path:nth-child(20) {
  -webkit-animation-delayy: 3s;
  animation-delay: 3s; }

path:nth-child(21) {
  -webkit-animation-delayy: 3.15s;
  animation-delay: 3.15s; }

path:nth-child(22) {
  -webkit-animation-delayy: 3.3s;
  animation-delay: 3.3s; }

path:nth-child(23) {
  -webkit-animation-delayy: 3.45s;
  animation-delay: 3.45s; }

path:nth-child(24) {
  -webkit-animation-delayy: 3.6s;
  animation-delay: 3.6s; }

path:nth-child(25) {
  -webkit-animation-delayy: 3.75s;
  animation-delay: 3.75s; }

path:nth-child(26) {
  -webkit-animation-delayy: 3.9s;
  animation-delay: 3.9s; }

path:nth-child(27) {
  -webkit-animation-delayy: 4.05s;
  animation-delay: 4.05s; }

path:nth-child(28) {
  -webkit-animation-delayy: 4.2s;
  animation-delay: 4.2s; }

path:nth-child(29) {
  -webkit-animation-delayy: 4.35s;
  animation-delay: 4.35s; }

path:nth-child(30) {
  -webkit-animation-delayy: 4.5s;
  animation-delay: 4.5s; }


    </style>
<path fill="none" stroke="#94D7F3" stroke-width="2" stroke-dasharray="1300" stroke-dashoffset="-1300" d="M-128.2-133.2
	C-76.3-73.3-58.4-20.8-52.1,17.3c3,17.9,4.5,39,15.5,67.3c3.5,9.1,18.2,44.9,55,80.5c43,41.601,87.6,55,104,59.7
	c123.1,34.5,223.9,7.2,381.3,20.5c58.6,4.9,116.399,10.3,188.6,35.601C800,318.8,880.2,380.4,930.4,426"/>
<path fill="none" stroke="#94D7F3" stroke-width="2" stroke-dasharray="1300" stroke-dashoffset="-1300" d="M-127.6-124.2
	c52,59.9,69.9,112.4,76.2,150.5c3,17.9,4.5,39,15.5,67.3c3.5,9.1,18.2,44.9,55,80.5c43,41.601,87.6,55,104,59.7
	c123.1,34.5,223.9,7.2,381.3,20.5C563,259.2,620.8,264.6,693,289.9C800.7,327.8,880.9,389.4,931.2,435"/>
<path fill="none" stroke="#94D7F3" stroke-width="2" stroke-dasharray="1300" stroke-dashoffset="-1300" d="M-126.6-116.1
	c52,59.9,69.9,112.4,76.2,150.5c3,17.9,4.5,39,15.5,67.3c3.5,9.1,18.2,44.899,55,80.5c43,41.6,87.6,55,104,59.7
	c123.1,34.5,223.9,7.199,381.3,20.5C564,267.3,621.8,272.7,694,298c107.7,37.9,187.9,99.5,238.2,145.1"/>
<path fill="none" stroke="#94D7F3" stroke-width="2" stroke-dasharray="1300" stroke-dashoffset="-1300" d="M-124-106.9
	C-72.1-47-54.2,5.5-47.9,43.6c3,17.9,4.5,39,15.5,67.3c3.5,9.1,18.2,44.9,55,80.5c43,41.6,87.6,55,104,59.699
	c123.1,34.5,223.9,7.2,381.3,20.5C566.5,276.5,624.3,281.9,696.5,307.2c107.7,37.899,187.9,99.5,238.2,145.1"/>
<path fill="none" stroke="#94D7F3" stroke-width="2" stroke-dasharray="1300" stroke-dashoffset="-1300" d="M-124.1-99.1
	C-72.2-39.3-54.3,13.2-47.9,51.3c3,17.9,4.5,39,15.5,67.3c3.5,9.1,18.2,44.9,55,80.5c43,41.601,87.6,55,104,59.7
	c123.1,34.5,223.9,7.2,381.3,20.5c58.6,4.9,116.399,10.3,188.6,35.601C804.2,352.8,884.4,414.4,934.7,460"/>
<path fill="none" stroke="#94D7F3" stroke-width="2" stroke-dasharray="1300" stroke-dashoffset="-1300" d="M-124.3-92.4
	C-72.3-32.5-54.4,20-48.1,58.1c3,17.9,4.5,39,15.5,67.3c3.5,9.1,18.2,44.9,55,80.5c43,41.6,87.6,55,104,59.699
	c123.1,34.5,223.9,7.2,381.3,20.5C566.3,291,624.1,296.4,696.3,321.7C804,359.6,884.2,421.2,934.5,466.8"/>
<path fill="none" stroke="#94D7F3" stroke-width="2" stroke-dasharray="1300" stroke-dashoffset="-1300" d="M-124.2-85.5
	C-72.3-25.6-54.4,26.9-48,65c3,17.9,4.5,39,15.5,67.3c3.5,9.1,18.2,44.9,55,80.5c43,41.601,87.6,55,104,59.7
	c123.1,34.5,223.9,7.2,381.3,20.5c58.601,4.9,116.4,10.3,188.601,35.6C804.1,366.5,884.3,428.1,934.6,473.7"/>
</svg>
